<svg width="21" height="26" viewBox="0 0 21 26" fill="none" xmlns="http://www.w3.org/2000/svg">
<path d="M10.5 26C11.9438 26 13.125 24.8 13.125 23.3333H7.875C7.875 24.8 9.05625 26 10.5 26ZM18.375 18V11.3333C18.375 7.24 16.2356 3.81333 12.4688 2.90667V2C12.4688 0.893333 11.5894 0 10.5 0C9.41063 0 8.53125 0.893333 8.53125 2V2.90667C4.7775 3.81333 2.625 7.22667 2.625 11.3333V18L0 20.6667V22H21V20.6667L18.375 18ZM15.75 19.3333H5.25V11.3333C5.25 8.02667 7.23187 5.33333 10.5 5.33333C13.7681 5.33333 15.75 8.02667 15.75 11.3333V19.3333Z" fill="black"/>
</svg>
