<svg width="20" height="22" viewBox="0 0 20 22" fill="none" xmlns="http://www.w3.org/2000/svg">
<path d="M18.6668 6.66667L12.1668 0.96834C11.5709 0.435389 10.7995 0.140747 10.0001 0.140747C9.20068 0.140747 8.42929 0.435389 7.83344 0.96834L1.33344 6.66667C0.989335 6.97442 0.714744 7.35194 0.527947 7.77411C0.34115 8.19627 0.246433 8.65338 0.250103 9.11501V18.5833C0.250103 19.4453 0.592512 20.2719 1.20201 20.8814C1.8115 21.4909 2.63815 21.8333 3.5001 21.8333H16.5001C17.3621 21.8333 18.1887 21.4909 18.7982 20.8814C19.4077 20.2719 19.7501 19.4453 19.7501 18.5833V9.10417C19.7522 8.64437 19.6568 8.18934 19.47 7.76916C19.2833 7.34898 19.0095 6.97321 18.6668 6.66667ZM12.1668 19.6667H7.83344V14.25C7.83344 13.9627 7.94757 13.6871 8.15074 13.484C8.3539 13.2808 8.62945 13.1667 8.91677 13.1667H11.0834C11.3708 13.1667 11.6463 13.2808 11.8495 13.484C12.0526 13.6871 12.1668 13.9627 12.1668 14.25V19.6667ZM17.5834 18.5833C17.5834 18.8707 17.4693 19.1462 17.2661 19.3494C17.063 19.5525 16.7874 19.6667 16.5001 19.6667H14.3334V14.25C14.3334 13.3881 13.991 12.5614 13.3815 11.9519C12.772 11.3424 11.9454 11 11.0834 11H8.91677C8.05481 11 7.22816 11.3424 6.61867 11.9519C6.00918 12.5614 5.66677 13.3881 5.66677 14.25V19.6667H3.5001C3.21278 19.6667 2.93723 19.5525 2.73407 19.3494C2.53091 19.1462 2.41677 18.8707 2.41677 18.5833V9.10417C2.41696 8.95036 2.44991 8.79834 2.51342 8.65825C2.57693 8.51816 2.66955 8.39319 2.7851 8.29167L9.2851 2.60417C9.4828 2.43049 9.73695 2.33471 10.0001 2.33471C10.2633 2.33471 10.5174 2.43049 10.7151 2.60417L17.2151 8.29167C17.3307 8.39319 17.4233 8.51816 17.4868 8.65825C17.5503 8.79834 17.5832 8.95036 17.5834 9.10417V18.5833Z" fill="black"/>
</svg>
