<svg id="Слой_1" data-name="Слой 1" xmlns="http://www.w3.org/2000/svg" viewBox="0 0 3565.15 3500"><defs><style>.cls-1,.cls-10,.cls-13,.cls-20,.cls-21,.cls-22,.cls-3{fill:none;}.cls-1,.cls-12{stroke:#66b0f0;}.cls-1,.cls-10,.cls-12,.cls-13,.cls-19,.cls-20,.cls-21,.cls-22,.cls-23,.cls-3,.cls-6,.cls-8{stroke-miterlimit:10;}.cls-1,.cls-12,.cls-20,.cls-21,.cls-3,.cls-8{stroke-width:6px;}.cls-2{fill:#d0f0e4;}.cls-13,.cls-3,.cls-6{stroke:#ffcf2d;}.cls-12,.cls-19,.cls-4,.cls-6,.cls-8{fill:#fff;}.cls-5{fill:#66b0f0;}.cls-10,.cls-13,.cls-22,.cls-23,.cls-6{stroke-width:5px;}.cls-23,.cls-7{fill:#ffcf2d;}.cls-20,.cls-8{stroke:#fe5244;}.cls-9{fill:#fe5244;}.cls-10,.cls-21,.cls-23{stroke:#fff;}.cls-10,.cls-21,.cls-22{stroke-linecap:round;}.cls-11{fill:#3fb1b5;}.cls-14{fill:#a0505a;}.cls-15{fill:#73325a;}.cls-16{fill:#feb040;}.cls-17{fill:#e57281;}.cls-18{fill:#9a3b82;}.cls-19{stroke:#feb040;stroke-width:4px;}.cls-22{stroke:#73325a;}</style></defs><g id="FLOOR"><line class="cls-1" x1="3214.64" y1="3059" x2="255.24" y2="3059"/><line class="cls-1" x1="513.74" y1="3112.6" x2="2208.44" y2="3112.6"/></g><g id="TABLE"><path class="cls-2" d="M3062.14,2393.9h-473.3a40.63,40.63,0,0,0-40.6,40.6V3059h554.4V2434.5A40.48,40.48,0,0,0,3062.14,2393.9Z"/><path class="cls-3" d="M3062.14,2393.9h-473.3a40.63,40.63,0,0,0-40.6,40.6V3059h554.4V2434.5A40.48,40.48,0,0,0,3062.14,2393.9Z"/><rect class="cls-3" x="2484.44" y="1692.3" width="683" height="1366.6"/><polyline class="cls-3" points="3185.34 1521.2 843.04 1521.2 843.04 1692.3 3317.04 1692.3"/><path class="cls-3" d="M3062.14,2013.5h-472.4a40.63,40.63,0,0,1-40.6-40.6V1806.1a40.63,40.63,0,0,1,40.6-40.6h472.4a40.63,40.63,0,0,1,40.6,40.6V1973A40.54,40.54,0,0,1,3062.14,2013.5Z"/><path class="cls-3" d="M3062.14,2315.5h-472.4a40.63,40.63,0,0,1-40.6-40.6V2108.1a40.63,40.63,0,0,1,40.6-40.6h472.4a40.63,40.63,0,0,1,40.6,40.6v166.8A40.63,40.63,0,0,1,3062.14,2315.5Z"/><circle class="cls-1" cx="2827.54" cy="1887.4" r="32.5"/><circle class="cls-1" cx="2827.54" cy="2190.3" r="32.5"/></g><g id="BACKET"><polygon class="cls-4" points="3030.44 2601.9 3029.74 2606.2 3029.44 2608.7 3019.04 2675 3019.04 2675 3017.94 2682.1 3017.94 2682.1 3013.24 2712.3 3011.54 2722.9 3011.54 2722.9 3007.14 2750.9 3006.04 2758 2995.34 2826.6 2995.34 2826.9 2994.24 2834 2993.64 2837.2 2983.44 2902.8 2982.34 2909.9 2982.34 2909.9 2977.54 2940.8 2977.54 2940.9 2975.84 2951.5 2971.54 2978.7 2971.54 2978.7 2970.44 2985.8 2959.74 3054.7 2959.64 3055.1 2959.64 3055.1 2959.14 3058.3 2959.04 3059 2678.04 3059 2677.94 3058.2 2677.44 3055.4 2677.34 3054.5 2677.34 3054.5 2666.54 2985.7 2665.44 2978.5 2661.24 2951.8 2659.64 2941.1 2654.74 2909.7 2653.64 2902.6 2643.44 2837.5 2642.84 2833.8 2641.74 2826.8 2641.74 2826.7 2630.94 2757.8 2629.84 2750.7 2625.54 2723.2 2623.94 2712.6 2619.14 2681.9 2618.04 2674.8 2607.74 2609 2606.64 2601.9 3030.44 2601.9"/><path class="cls-5" d="M2961.74,3062.1h-286.4l-1.2-7.4-71.2-455.9H3034Zm-281.1-6.2h275.7l70.4-450.8h-416.6Z"/><path class="cls-5" d="M3034.34,2601.9a12.91,12.91,0,0,1-.7,4.3c-3.4,10.5-19,20.2-43.5,28.2-1.8.6-3.6,1.1-5.4,1.7a402.16,402.16,0,0,1-56,11.9l-6.1.9c-18.8,2.6-39.3,4.5-61,5.6l-6.5.3c-11.9.5-24.2.8-36.7.8-9.6,0-19.1-.2-28.4-.5l-6.9-.3c-25-1-48.6-3.1-70-6.1-2.6-.4-5.1-.7-7.6-1.1-36.3-5.5-65.5-13.6-83.4-23.3-10.4-5.6-16.9-11.7-19-18.1l-.6-4.2c0-29.6,96.6-53.5,215.8-53.5,118.5,0,214.7,23.7,215.8,53.1C3034.34,2601.6,3034.34,2601.7,3034.34,2601.9Z"/><path class="cls-5" d="M2959.84,3054.8v4l-.7-.5-.1.6h-2.6l-31.9-41.2-3.3-4.3-32.1-41.4-3.3-4.3-32.1-41.4-3.3-4.3-32.1-41.4-3.3-4.3-32.1-41.4-3.3-4.3-32-41.4-3.3-4.3-32.1-41.4-3.3-4.3-32-41.4-3.3-4.3-32-41.4-3.3-4.3-30.7-39.6-.5-2.9c2,6.3,8.4,12.3,18.6,17.8l15.8,20.4,3.3,4.3,32.1,41.4,3.3,4.3,32.1,41.4,3.3,4.3,32.1,41.4,3.3,4.3,32.1,41.4,3.3,4.3,32.1,41.4,3.3,4.3,32.1,41.4,3.3,4.3,32.1,41.4,3.3,4.3,32.1,41.4,3.3,4.3,31.9,41.2Z"/><path class="cls-5" d="M2971.54,2978.7h0l-1.1,7.1-10.6-13.7-3.3-4.3-32.1-41.4-3.3-4.3-32.1-41.4-3.3-4.3-32.1-41.4-3.3-4.3-32.1-41.4-3.3-4.3-31.8-41-3.3-4.3-32.1-41.4-3.3-4.3-32.1-41.4-3.3-4.3-1.4-1.8c2.4.4,4.9.7,7.4,1.1l.5.7,32.1,41.4,3.3,4.3,32.1,41.4,3.3,4.3,32.1,41.4,3.3,4.3,32.1,41.4,3.3,4.3,32.1,41.4,3.3,4.3,32.1,41.4,3.3,4.3,32.1,41.4,3.3,4.3Z"/><path class="cls-5" d="M2983.44,2902.8l-1.1,7.1-22.5-29-3.3-4.3-32.1-41.4-3.3-4.3-32.1-41.4-3.3-4.3-32.1-41.4-3.3-4.3-32.1-41.4-3.3-4.3-31.3-40.4,6.8.3,27.8,35.8,3.3,4.3,32.1,41.4,3.3,4.3,32.1,41.4,3.3,4.3,32.1,41.4,3.3,4.3,32.1,41.4,3.3,4.3Z"/><path class="cls-5" d="M2995.34,2826.9l-1.1,7.1-2.3-3-32.1-41.4-3.3-4.3-32.1-41.4-3.3-4.3-32.1-41.4-3.3-4.3-31.3-40.4,6.4-.3,28.2,36.4,3.3,4.3,32.1,41.4,3.3,4.3,32.1,41.4,3.3,4.3,32.1,41.4Z"/><polygon class="cls-5" points="2749.74 3057.4 2747.74 3058.9 2747.64 3059 2744.34 3059 2712.34 3017.8 2709.04 3013.5 2677.04 2972.1 2673.74 2967.9 2661.24 2951.8 2659.64 2941.1 2677.04 2963.6 2680.34 2967.9 2712.34 3009.2 2715.64 3013.5 2747.74 3054.9 2749.74 3057.4"/><polygon class="cls-5" points="2678.94 3057.4 2677.94 3058.2 2677.44 3055.4 2678.94 3057.4"/><polygon class="cls-5" points="2820.44 3057.4 2818.44 3058.9 2818.34 3059 2815.04 3059 2783.14 3017.8 2779.84 3013.5 2747.74 2972.1 2744.44 2967.9 2712.34 2926.5 2709.04 2922.3 2709.04 2922.2 2677.04 2880.9 2673.74 2876.6 2643.44 2837.5 2642.84 2833.8 2641.74 2826.8 2644.94 2831 2677.04 2872.4 2680.34 2876.6 2712.34 2918 2715.64 2922.3 2747.74 2963.6 2751.04 2967.9 2783.14 3009.2 2786.44 3013.5 2818.44 3054.9 2820.44 3057.4"/><polygon class="cls-5" points="2891.14 3057.4 2889.14 3058.9 2889.04 3059 2885.74 3059 2853.84 3017.8 2850.54 3013.5 2818.44 2972.1 2815.14 2967.9 2783.14 2926.5 2779.84 2922.3 2747.74 2880.9 2744.44 2876.6 2712.34 2835.3 2709.04 2831 2677.04 2789.6 2673.74 2785.4 2641.64 2744 2638.34 2739.8 2625.54 2723.2 2623.94 2712.6 2641.64 2735.5 2644.94 2739.8 2677.04 2781.1 2680.34 2785.4 2712.34 2826.7 2715.64 2831 2747.74 2872.4 2751.04 2876.6 2783.14 2918 2786.44 2922.3 2818.44 2963.6 2821.74 2967.9 2853.84 3009.2 2857.14 3013.5 2889.14 3054.9 2891.14 3057.4"/><path class="cls-5" d="M3007.14,2750.9l-1.1,7.1-10.8-14-3.3-4.3-32.1-41.4-3.3-4.3-32.1-41.4-3.3-4.3-.4-.5c2-.3,4-.6,5.9-.9l1.1,1.4,32.1,41.4,3.3,4.3,32.1,41.4,3.3,4.3Z"/><path class="cls-5" d="M3019,2675h0l-1.1,7.1-22.7-29.3-3.3-4.3-10.1-13.1c1.8-.5,3.6-1.1,5.3-1.7l8.1,10.5,3.3,4.3Z"/><path class="cls-5" d="M3033.34,2603.5l-2.8,3.6-.8-1h0a12.34,12.34,0,0,0,.7-4.2v-.5l.1-.1Z"/><polygon class="cls-5" points="3013.24 2712.3 3011.54 2722.9 3011.54 2722.9 2998.54 2739.8 2995.24 2744 2963.14 2785.4 2959.84 2789.6 2927.84 2831 2924.54 2835.3 2892.44 2876.6 2889.14 2880.9 2857.14 2922.3 2853.84 2926.5 2821.74 2967.9 2818.44 2972.1 2786.44 3013.5 2783.14 3017.8 2751.14 3059 2747.84 3059 2747.74 3058.9 2745.84 3057.4 2747.74 3054.9 2779.84 3013.5 2783.14 3009.2 2815.14 2967.9 2818.44 2963.6 2850.54 2922.3 2853.84 2918 2885.84 2876.6 2889.14 2872.4 2921.24 2831 2924.54 2826.7 2956.54 2785.4 2959.84 2781.1 2991.94 2739.8 2995.24 2735.5 3013.24 2712.3"/><path class="cls-5" d="M3029.44,2608.7l-30.9,39.9-3.3,4.3-32.1,41.4-3.3,4.3-32.1,41.4-3.3,4.3-32.1,41.4-3.3,4.3-31.9,41-3.3,4.3-32.1,41.4-3.3,4.3-32.1,41.4-3.3,4.3-32.1,41.4-3.3,4.3-32.1,41.4-3.3,4.3-31.9,41.2h-2.4l-.1-.8-.4-2.8-.4-.5.3-.4h0l31.8-41,3.3-4.3,32.1-41.4,3.3-4.3,32.1-41.4,3.3-4.3,32.1-41.4,3.3-4.3,32.1-41.4,3.3-4.3,32.1-41.4,3.3-4.3,32.1-41.4,3.3-4.3,32.1-41.4,3.3-4.3,32-41.4,3.3-4.3,15.7-20.3c10.3-5.5,16.8-11.5,18.9-17.9Z"/><path class="cls-5" d="M2929.14,2646.8l-1.4,1.8-3.3,4.3-32.1,41.4-3.3,4.3-32.1,41.4-3.3,4.3-32.1,41.4-3.3,4.3-32.1,41.4-3.3,4.3-32.1,41.4-3.3,4.3-32.1,41.4-3.3,4.3-32.1,41.4-3.3,4.3-10.5,13.5-1.1-7.1,8.3-10.7,3.3-4.3,32-41.4h0l3.3-4.3,32.1-41.4,3.3-4.3,32-41.4,3.3-4.3,32.1-41.4,3.3-4.3,32.1-41.4,3.3-4.3,32.1-41.4,3.3-4.3,32.1-41.4.5-.7c1.7-.2,3.4-.5,5-.7C2927.54,2647,2928.34,2646.9,2929.14,2646.8Z"/><path class="cls-5" d="M2853,2653.8l-31.3,40.3-3.3,4.3-32.1,41.4-3.3,4.3-32.1,41.4-3.3,4.3-32.1,41.4-3.3,4.3-32.1,41.4-3.3,4.3-22.3,28.8-1.1-7.1,20.1-26,3.3-4.3,32.1-41.4,3.3-4.3,32.1-41.4,3.3-4.3,32.1-41.4,3.3-4.3,32.1-41.4,3.3-4.3,27.8-35.8C2848.44,2654,2850.74,2653.9,2853,2653.8Z"/><polygon class="cls-5" points="2977.54 2940.9 2975.84 2951.5 2963.14 2967.9 2959.84 2972.1 2927.84 3013.5 2924.54 3017.8 2892.54 3059 2889.24 3059 2889.14 3058.9 2887.24 3057.4 2889.14 3054.9 2921.24 3013.5 2924.54 3009.2 2956.54 2967.9 2959.84 2963.6 2977.54 2940.9"/><polygon class="cls-5" points="2993.64 2837.2 2963.14 2876.6 2959.84 2880.9 2927.84 2922.3 2924.54 2926.5 2892.44 2967.9 2889.14 2972.1 2857.14 3013.5 2853.84 3017.8 2821.84 3059 2818.54 3059 2818.44 3058.9 2816.54 3057.4 2818.44 3054.9 2850.54 3013.5 2853.84 3009.2 2885.84 2967.9 2889.14 2963.6 2921.24 2922.3 2924.54 2918 2956.54 2876.6 2959.84 2872.4 2991.94 2831 2995.24 2826.7 2995.34 2826.6 2995.34 2826.9 2994.24 2834 2993.64 2837.2"/><path class="cls-5" d="M2782.34,2653.7l-31.3,40.4-3.3,4.3-32.1,41.4-3.3,4.3-32.1,41.4-3.3,4.3-32.1,41.4-2.1,2.8-1.1-6.9-.1-.1.1-.1,32-41.3,3.3-4.3,32-41.4,3.3-4.3,32.1-41.4,3.3-4.3,28.2-36.4C2778.14,2653.5,2780.24,2653.6,2782.34,2653.7Z"/><path class="cls-5" d="M2716.14,2648l-.4.6-3.3,4.3-32.1,41.4-3.3,4.3-32.1,41.4-3.3,4.3-10.7,13.8-1.1-7.1,8.5-11,3.3-4.3,32-41.4,3.3-4.3,32.1-41.4,1.1-1.4c1.6.2,3.3.5,5,.7Z"/><path class="cls-5" d="M2655.14,2635.4l-10.2,13.1-3.3,4.3-22.6,29.1-1.1-7.1,20.4-26.3,3.3-4.3,8.2-10.5C2651.54,2634.3,2653.34,2634.9,2655.14,2635.4Z"/><path class="cls-6" d="M3051,2543.2h-92.3v-28.1h56A37.56,37.56,0,0,1,3051,2543.2Z"/><path class="cls-6" d="M3015.34,2515.1a58.83,58.83,0,0,0-56.1,43.1l-21.3,77.3c-3,.5-6.1,1-9.2,1.4l-6.1.9c-18.8,2.6-39.3,4.5-61,5.6l-6.5.3c-11.9.5-24.2.8-36.7.8-9.6,0-19.1-.2-28.4-.5l-6.9-.3c-.9,0-1.8-.1-2.7-.1l23.6-85.4a58.69,58.69,0,0,1,56.7-43.1Z"/></g><g id="LAMP"><polygon class="cls-7" points="2952.14 848.8 3188.24 1521.2 2323.64 1521.2 2553.44 848.8 2952.14 848.8"/><path class="cls-1" d="M2754.64,768.7a50.7,50.7,0,0,1,50.7-50.7h29.3a50.7,50.7,0,0,1,50.7,50.7v656.1"/><path class="cls-8" d="M2953.44,1499.8v20.3h-213.8v-20.3a75.07,75.07,0,0,1,75-75h63.7c1,0,2.1,0,3.1.1A74.94,74.94,0,0,1,2953.44,1499.8Z"/><path class="cls-9" d="M3000.94,851.6h-494.7V836.1a67.11,67.11,0,0,1,67.1-67.1h360.5a67.11,67.11,0,0,1,67.1,67.1v15.5Z"/><line class="cls-10" x1="3000.94" y1="839.2" x2="2506.24" y2="839.2"/><path class="cls-4" d="M2949.24,851.6c0,17.7-11,32.1-24.7,32.1h-346.2c-13.6,0-24.7-14.4-24.7-32.1Z"/><path class="cls-8" d="M2885.34,1444.4c0,32.1-29.3,58.2-65.4,58.2-32.5,0-59.5-21.1-64.5-48.8a75,75,0,0,1,59.2-29h63.7c1,0,2.1,0,3.1.1A49.56,49.56,0,0,1,2885.34,1444.4Z"/><path class="cls-9" d="M2821.74,1411.1v31.4c0,6.4-5.9,11.6-13.1,11.6s-13.1-5.2-13.1-11.6v-31.4h.2c1.2,5.5,6.5,9.7,12.8,9.7s11.6-4.2,12.8-9.7Z"/><path class="cls-8" d="M2818.94,1410a14.92,14.92,0,0,1-.2,2.1,10.4,10.4,0,0,1-10.2,8.7,10.56,10.56,0,0,1-10.2-8.7,14.92,14.92,0,0,1-.2-2.1,10.55,10.55,0,0,1,10.4-10.8A10.68,10.68,0,0,1,2818.94,1410Z"/></g><g id="BOOKS"><rect class="cls-11" x="2444.14" y="1065.4" width="34.2" height="455.8"/><path class="cls-6" d="M2429.84,1521.2h-58.6A11.18,11.18,0,0,1,2360,1510V1171.2a11.18,11.18,0,0,1,11.2-11.2h58.6a11.18,11.18,0,0,1,11.2,11.2V1510A11.18,11.18,0,0,1,2429.84,1521.2Z"/><path class="cls-1" d="M2618.34,1513.9H2551a10.18,10.18,0,0,1-10-8.3l-60.4-313.8a10.17,10.17,0,0,1,10-12.1h67.3a10.18,10.18,0,0,1,10,8.3l60.4,313.8A10.17,10.17,0,0,1,2618.34,1513.9Z"/><path class="cls-9" d="M2346.64,1521.2h-317a13.4,13.4,0,0,1-13.4-13.4v-64.9a13.4,13.4,0,0,1,13.4-13.4h317a13.4,13.4,0,0,1,13.4,13.4v64.9A13.4,13.4,0,0,1,2346.64,1521.2Z"/></g><g id="NOTES"><path class="cls-6" d="M1159.54,408.8V615.6a73.45,73.45,0,0,1-73.4,73.4H856.84a73.38,73.38,0,0,0,73.4-73.4V408.8Z"/><rect class="cls-9" x="1035.14" y="388.8" width="18.5" height="44.1"/><path class="cls-7" d="M1092.84,487.4a10.91,10.91,0,0,1-7.3-2.9l-7.7-6.8a5.87,5.87,0,0,0-8,0l-7.3,6.5a10.9,10.9,0,0,1-14.7,0l-6.7-5.9a5.87,5.87,0,0,0-8,0l-6.2,5.5a10.9,10.9,0,0,1-14.7,0l-5.1-4.5a5.87,5.87,0,0,0-8,0l-5.5,4.9a10.9,10.9,0,0,1-14.7,0l-5.1-4.5a5.87,5.87,0,0,0-8,0,2.48,2.48,0,0,1-3.3-3.7,10.9,10.9,0,0,1,14.7,0l5.1,4.5a5.87,5.87,0,0,0,8,0l5.5-4.9a10.9,10.9,0,0,1,14.7,0l5.1,4.5a5.87,5.87,0,0,0,8,0l6.2-5.5a10.9,10.9,0,0,1,14.7,0l6.7,5.9a5.87,5.87,0,0,0,8,0l7.3-6.5a10.9,10.9,0,0,1,14.7,0l7.7,6.8a5.87,5.87,0,0,0,8,0l8-7.1a10.9,10.9,0,0,1,14.7,0,2.48,2.48,0,1,1-3.3,3.7,5.87,5.87,0,0,0-8,0l-8,7.1A12,12,0,0,1,1092.84,487.4Z"/><path class="cls-7" d="M1092.84,528.5a10.91,10.91,0,0,1-7.3-2.9l-7.7-6.8a5.87,5.87,0,0,0-8,0l-7.3,6.5a10.9,10.9,0,0,1-14.7,0l-6.7-5.9a5.87,5.87,0,0,0-8,0l-6.2,5.5a10.9,10.9,0,0,1-14.7,0l-5.1-4.5a5.87,5.87,0,0,0-8,0l-5.5,4.9a10.9,10.9,0,0,1-14.7,0l-5.1-4.5a5.87,5.87,0,0,0-8,0,2.48,2.48,0,1,1-3.3-3.7,10.9,10.9,0,0,1,14.7,0l5.1,4.5a5.87,5.87,0,0,0,8,0l5.5-4.9a10.9,10.9,0,0,1,14.7,0l5.1,4.5a5.87,5.87,0,0,0,8,0l6.2-5.5a10.9,10.9,0,0,1,14.7,0l6.7,5.9a5.87,5.87,0,0,0,8,0l7.3-6.5a10.9,10.9,0,0,1,14.7,0l7.7,6.8a5.87,5.87,0,0,0,8,0l8-7.1a10.9,10.9,0,0,1,14.7,0,2.48,2.48,0,0,1-3.3,3.7,5.87,5.87,0,0,0-8,0l-8,7.1A11.46,11.46,0,0,1,1092.84,528.5Z"/><path class="cls-7" d="M1092.84,569.6a10.91,10.91,0,0,1-7.3-2.9l-7.7-6.8a5.87,5.87,0,0,0-8,0l-7.3,6.5a10.9,10.9,0,0,1-14.7,0l-6.7-5.9a5.87,5.87,0,0,0-8,0l-6.2,5.5a10.9,10.9,0,0,1-14.7,0l-5.1-4.5a5.87,5.87,0,0,0-8,0l-5.5,4.9a10.9,10.9,0,0,1-14.7,0l-5.1-4.5a5.87,5.87,0,0,0-8,0,2.48,2.48,0,1,1-3.3-3.7,10.9,10.9,0,0,1,14.7,0l5.1,4.5a5.87,5.87,0,0,0,8,0l5.5-4.9a10.9,10.9,0,0,1,14.7,0l5.1,4.5a5.87,5.87,0,0,0,8,0l6.2-5.5a10.9,10.9,0,0,1,14.7,0l6.7,5.9a5.87,5.87,0,0,0,8,0l7.3-6.5a10.9,10.9,0,0,1,14.7,0l7.7,6.8a5.87,5.87,0,0,0,8,0l8-7.1a10.9,10.9,0,0,1,14.7,0,2.48,2.48,0,0,1-3.3,3.7,5.87,5.87,0,0,0-8,0l-8,7.1A11.46,11.46,0,0,1,1092.84,569.6Z"/><path class="cls-7" d="M1092.84,610.8a10.91,10.91,0,0,1-7.3-2.9l-7.7-6.8a5.87,5.87,0,0,0-8,0l-7.3,6.5a10.9,10.9,0,0,1-14.7,0l-6.7-5.9a5.87,5.87,0,0,0-8,0l-6.2,5.5a10.9,10.9,0,0,1-14.7,0l-5.1-4.5a5.87,5.87,0,0,0-8,0l-5.5,4.9a10.9,10.9,0,0,1-14.7,0l-5.1-4.5a5.87,5.87,0,0,0-8,0,2.48,2.48,0,1,1-3.3-3.7,10.9,10.9,0,0,1,14.7,0l5.1,4.5a5.87,5.87,0,0,0,8,0l5.5-4.9a10.9,10.9,0,0,1,14.7,0l5.1,4.5a5.87,5.87,0,0,0,8,0l6.2-5.5a10.9,10.9,0,0,1,14.7,0l6.7,5.9a5.87,5.87,0,0,0,8,0l7.3-6.5a10.9,10.9,0,0,1,14.7,0l7.7,6.8a5.87,5.87,0,0,0,8,0l8-7.1a10.9,10.9,0,0,1,14.7,0,2.48,2.48,0,0,1-3.3,3.7,5.87,5.87,0,0,0-8,0l-8,7.1A12,12,0,0,1,1092.84,610.8Z"/><rect class="cls-5" x="1235.24" y="408.8" width="160.4" height="160.4"/><rect class="cls-7" x="1216.24" y="402.62" width="54.5" height="18.5" transform="translate(17.47 873.15) rotate(-38.94)"/><rect class="cls-7" x="1379.33" y="384.6" width="18.5" height="54.5" transform="translate(195.44 1232.96) rotate(-51.06)"/><rect class="cls-4" x="1264.44" y="446.8" width="97.3" height="6"/><rect class="cls-4" x="1264.44" y="472.7" width="97.3" height="6"/><rect class="cls-4" x="1264.44" y="498.7" width="97.3" height="6"/><rect class="cls-4" x="1264.44" y="524.6" width="97.3" height="6"/></g><g id="COMPUTER"><polygon class="cls-12" points="2008.74 1521.2 1634.84 1521.2 1707.24 1361.2 1717.84 1337.7 1925.74 1337.7 1954.94 1402.2 2008.74 1521.2"/><polygon class="cls-5" points="1954.94 1402.2 1707.24 1361.2 1717.84 1337.7 1925.74 1337.7 1954.94 1402.2"/><path class="cls-12" d="M2262.44,1337.7h-880.1a58.4,58.4,0,0,1-58.4-58.4V704.8a58.4,58.4,0,0,1,58.4-58.4h880.1a58.4,58.4,0,0,1,58.4,58.4v574.4A58.49,58.49,0,0,1,2262.44,1337.7Z"/><path class="cls-5" d="M1998.74,1297.1h-352.8a31.07,31.07,0,0,1-31.1-31.1v-42.7a31.07,31.07,0,0,1,31.1-31.1h352.8a31.07,31.07,0,0,1,31.1,31.1V1266A31.13,31.13,0,0,1,1998.74,1297.1Z"/><path class="cls-4" d="M1906.14,1268.6h-23.8a10.71,10.71,0,0,1-10.7-10.7v-18.6a10.71,10.71,0,0,1,10.7-10.7h23.8a10.71,10.71,0,0,1,10.7,10.7v18.6A10.71,10.71,0,0,1,1906.14,1268.6Z"/><path class="cls-4" d="M1936.44,1265.5l-8.8-5.6a8.4,8.4,0,0,1-3.9-7.1v-8.4a8.4,8.4,0,0,1,3.9-7.1l8.8-5.6a3.13,3.13,0,0,1,4.8,2.6v28.5A3.13,3.13,0,0,1,1936.44,1265.5Z"/><path class="cls-4" d="M1815.94,1259.2h-2.2a15.83,15.83,0,0,1-15.8-15.8v-9.3a1.54,1.54,0,0,1,1.5-1.5h30.7a1.54,1.54,0,0,1,1.5,1.5v9.3A15.68,15.68,0,0,1,1815.94,1259.2Zm-15-23.6v7.8a12.82,12.82,0,0,0,12.8,12.8h2.2a12.82,12.82,0,0,0,12.8-12.8v-7.8Z"/><path class="cls-4" d="M1814.84,1276.5a1.54,1.54,0,0,1-1.5-1.5v-11.3a1.5,1.5,0,0,1,3,0V1275A1.54,1.54,0,0,1,1814.84,1276.5Z"/><path class="cls-4" d="M1822.74,1276.5H1807a1.5,1.5,0,0,1,0-3h15.7a1.5,1.5,0,0,1,0,3Z"/><path class="cls-4" d="M1815.54,1252.2h-1.4a9,9,0,0,1-9-9V1225a9,9,0,0,1,9-9h1.4a9,9,0,0,1,9,9v18.2A9,9,0,0,1,1815.54,1252.2Z"/><path class="cls-4" d="M1723.54,1240.9l-.1.1c-1.9,2.3-1.3,5.8,1.2,7.9l9.2,7.4a5.76,5.76,0,0,0,8-.5l.1-.1a5.54,5.54,0,0,1,7.9-.3l8.3,7.5c2.6,2.4,2.6,6.4,0,8.2-8.7,6.1-20,3.9-29.3-3.6l-14-11.3c-9.3-7.6-13.8-18.2-9.7-28,1.3-3,5.2-3.8,8-1.7l9.1,6.6A5.66,5.66,0,0,1,1723.54,1240.9Z"/><path class="cls-4" d="M1747.94,1246.7a1.52,1.52,0,0,1-1.5-1.4,13.08,13.08,0,0,0-13.9-12.2,1.62,1.62,0,0,1-1.6-1.4,1.54,1.54,0,0,1,1.4-1.6,16.1,16.1,0,0,1,17.1,15,1.49,1.49,0,0,1-1.5,1.6Z"/><path class="cls-4" d="M1757.34,1245.2a1.52,1.52,0,0,1-1.5-1.4,22.75,22.75,0,0,0-24.1-21.2,1.62,1.62,0,0,1-1.6-1.4,1.54,1.54,0,0,1,1.4-1.6,25.91,25.91,0,0,1,18.6,6.3,25.54,25.54,0,0,1,8.7,17.6,1.48,1.48,0,0,1-1.5,1.7Z"/><circle class="cls-13" cx="2095.54" cy="690.1" r="10.4"/><circle class="cls-13" cx="2138.04" cy="690.1" r="10.4"/><circle class="cls-13" cx="2180.64" cy="690.1" r="10.4"/><path class="cls-1" d="M1785.34,1166.6h-313.4a17.31,17.31,0,0,1-17.3-17.3V981.5a17.31,17.31,0,0,1,17.3-17.3h313.4a17.31,17.31,0,0,1,17.3,17.3v167.8A17.31,17.31,0,0,1,1785.34,1166.6Z"/><path class="cls-11" d="M2180.64,1166.6h-313.4a17.31,17.31,0,0,1-17.3-17.3V981.5a17.31,17.31,0,0,1,17.3-17.3h313.4a17.31,17.31,0,0,1,17.3,17.3v167.8A17.31,17.31,0,0,1,2180.64,1166.6Z"/><path class="cls-9" d="M2121.44,1166.1h-204.8a112.78,112.78,0,0,1,87.7-41.9h29.4A113.09,113.09,0,0,1,2121.44,1166.1Z"/><path class="cls-4" d="M2012.64,1124.3a30.79,30.79,0,0,1-57.3,11.1,112.81,112.81,0,0,1,48.9-11.1Z"/><path class="cls-4" d="M2073.14,1131.3a30.79,30.79,0,0,1-59.2-7.1h19.9A114.1,114.1,0,0,1,2073.14,1131.3Z"/><path class="cls-14" d="M2050.64,1079.7v45.4c0,7.1-14.2,12.8-31.6,12.8a89.6,89.6,0,0,1-9.2-.5c-13-1.6-22.4-6.5-22.4-12.3v-45.4Z"/><path class="cls-15" d="M2046.44,1089c0,19.7-17.2,43.6-36.6,48.3-13-1.6-22.4-6.5-22.4-12.3v-45.4h58Z"/><path class="cls-14" d="M2066.84,1073.9v1.1a14,14,0,0,1-14,14h-13.4a38.31,38.31,0,0,1-34.8,22.1H2002a31.07,31.07,0,0,1-31.1-31.1v-32.1c19.9,1.3,45.2-16.1,45.2-16.1,8.3,32.1,32,31.7,43,29.6A14.19,14.19,0,0,1,2066.84,1073.9Z"/><path class="cls-15" d="M2047.14,1078.8a1.54,1.54,0,0,1-1.5-1.5,11.61,11.61,0,0,1,11.6-11.6,1.5,1.5,0,0,1,0,3,8.6,8.6,0,0,0-8.6,8.6A1.54,1.54,0,0,1,2047.14,1078.8Z"/><path class="cls-7" d="M2050.64,1089h2.2a14,14,0,0,0,14-14v-1.1a13.89,13.89,0,0,0-7.7-12.5,44.84,44.84,0,0,1-11.5.7c-11.4-.9-25.5-7.1-31.5-30.3,0,0-25.3,17.4-45.2,16.1a22.73,22.73,0,0,1-10.3-2.9c-16.5-9.4,23.4-53.4,69.2-46.8,36.6,5.3,35.8,49.1,35.1,59.5a48.86,48.86,0,0,1,5.4-.3c26.8,0,48.5,20.6,48.5,46.1,0,16.6-9.2,31.2-23.1,39.3a112,112,0,0,0-45.1-17.3Z"/><path class="cls-15" d="M1991.14,1079.9a.75.75,0,0,1-.5-.1,1.48,1.48,0,0,1-.9-1.9,21.48,21.48,0,0,0-2-16.9c-4.3-7.5-13.8-6.2-14.2-6.1a1.51,1.51,0,1,1-.4-3c.5-.1,11.9-1.7,17.3,7.6a24.16,24.16,0,0,1,2.2,19.4A1.88,1.88,0,0,1,1991.14,1079.9Z"/><path class="cls-15" d="M2025.24,1060.9a1.61,1.61,0,0,1-.9-.3c-8.7-6.7-20.3-5.9-20.4-5.9a1.5,1.5,0,1,1-.2-3c.5,0,12.8-.9,22.4,6.5a1.46,1.46,0,0,1,.3,2.1A1.73,1.73,0,0,1,2025.24,1060.9Z"/><path class="cls-4" d="M1985.94,1083.3s2.4,15.8,18.7.4C2004.64,1083.7,1993.24,1085.2,1985.94,1083.3Z"/><ellipse class="cls-15" cx="2011.04" cy="1065.3" rx="2.1" ry="4.7"/><ellipse class="cls-15" cx="1979.84" cy="1065.3" rx="1.8" ry="3.9"/><path class="cls-5" d="M2176.74,937.3h-313.4A17.31,17.31,0,0,1,1846,920V752.2a17.31,17.31,0,0,1,17.3-17.3h313.4a17.31,17.31,0,0,1,17.3,17.3V920A17.37,17.37,0,0,1,2176.74,937.3Z"/><path class="cls-7" d="M2112.94,937.3h-191.3c19.3-25.7,48.8-42.1,81.9-42.1H2031C2064.14,895.2,2093.64,911.6,2112.94,937.3Z"/><path class="cls-4" d="M2007.14,928.7h4.3a33.93,33.93,0,0,0,33.9-33.9V870.7a.22.22,0,0,0-.2-.2h-62.9a.22.22,0,0,0-.2.2v33.1A25.07,25.07,0,0,0,2007.14,928.7Z"/><path class="cls-7" d="M1982.14,870.5v33.8c.9,18.6,47.2,11.3,61.1-33.8Z"/><path class="cls-4" d="M2063.64,856a14.51,14.51,0,0,1-14.6,14.5h-13.7a34.39,34.39,0,0,1-32.2,22.2h-10.7a26.91,26.91,0,0,1-26.9-26.9v-42c15.4,1.3,28.4-11.1,28.9-11.6-.2.7-8,22.7,9.7,23.9s23.4-11.5,23.6-12c0,.5.1,17.5,14,18.4h7.3C2057.14,842.5,2063.64,848,2063.64,856Z"/><path class="cls-9" d="M2043,842.5h-1.2c-13.9-.9-14-17.8-14-18.4-.2.5-6.1,13.2-23.6,12s-9.9-23.2-9.7-23.9c-.5.4-13.5,12.9-28.9,11.6a25.9,25.9,0,0,1-10.3-3.1c-22.5-12.2-8-37.3,14.1-37.6,17.6-.2,25.1,9.4,25.1,9.4s3.8-19.7,25.4-16.3,17.7,22.5,17.7,22.5,18.1-8.4,28.1,7.1C2077.54,824,2059.84,842.5,2043,842.5Z"/><path class="cls-7" d="M1983.94,860.8h-.4a1.49,1.49,0,0,1-1.1-1.8c0-.1,2.4-10-1.9-18.1-4.7-8.6-12.8-7.2-13.1-7.2a1.48,1.48,0,0,1-1.7-1.2,1.41,1.41,0,0,1,1.2-1.7,15.89,15.89,0,0,1,16.3,8.7c4.9,9.1,2.3,19.8,2.2,20.2A1.87,1.87,0,0,1,1983.94,860.8Z"/><path class="cls-7" d="M1989.24,872.4a20.24,20.24,0,0,1-5.4-.7,1.49,1.49,0,0,1,.7-2.9h0c.5.1,11.9,3.1,16.1-5.7a1.5,1.5,0,0,1,2-.7,1.42,1.42,0,0,1,.7,2C2000.44,870.7,1994.34,872.4,1989.24,872.4Z"/><ellipse class="cls-7" cx="2003.74" cy="844.1" rx="2.1" ry="4.7"/><ellipse class="cls-7" cx="1972.64" cy="844.1" rx="1.8" ry="3.9"/><path class="cls-7" d="M2041.54,861.5a1.54,1.54,0,0,1-1.5-1.5,11.61,11.61,0,0,1,11.6-11.6,1.5,1.5,0,0,1,0,3,8.6,8.6,0,0,0-8.6,8.6A1.54,1.54,0,0,1,2041.54,861.5Z"/><path class="cls-7" d="M1781.34,937.3h-313.4a17.31,17.31,0,0,1-17.3-17.3V752.2a17.31,17.31,0,0,1,17.3-17.3h313.4a17.31,17.31,0,0,1,17.3,17.3V920A17.24,17.24,0,0,1,1781.34,937.3Z"/><path class="cls-4" d="M1705.64,937.3h-194.4c19.6-29.3,49.6-48,83.2-48h28C1656,889.3,1685.94,908,1705.64,937.3Z"/><path class="cls-16" d="M1705.64,937.3h-194.4c.6-.9,1.2-1.7,1.8-2.6a1,1,0,0,1,.4-.5h190.1a1.76,1.76,0,0,0,.4.5C1704.44,935.5,1705,936.4,1705.64,937.3Z"/><path class="cls-16" d="M1697.44,926.4h-178c.9-1.1,1.8-2.1,2.7-3.1h172.6C1695.64,924.3,1696.54,925.3,1697.44,926.4Z"/><path class="cls-16" d="M1686.44,915h-156c1.2-1.1,2.4-2.1,3.6-3.1h148.8C1684,912.9,1685.24,913.9,1686.44,915Z"/><path class="cls-16" d="M1669.64,902.5h-122.5c1.8-1.1,3.7-2.1,5.6-3.1h111.2C1665.94,900.4,1667.74,901.4,1669.64,902.5Z"/><path class="cls-17" d="M1639.44,851.9v44.7c0,4.6-14.2,8.3-31.6,8.3-17,0-30.9-3.5-31.6-8v-45Z"/><path class="cls-18" d="M1639,851.9v1c0,22-27.3,47.2-47,50.1-3.1.5-12.7-1.4-15.7-6.2v-45H1639Z"/><path class="cls-17" d="M1656.64,837.8v1a14,14,0,0,1-14,14h-12.1a33.09,33.09,0,0,1-31.9,24.2h-12.9a26,26,0,0,1-26-26V794.1c24,6.7,66.9.4,66.9.4a44.86,44.86,0,0,0,3.5,29.2h12.6A14.17,14.17,0,0,1,1656.64,837.8Z"/><path class="cls-19" d="M1642.14,822h-11.4c-9.7-16.4-4.2-27.3-4.2-27.3s-42.9,6.2-66.9-.4c-10.9-3-17.9-8.7-15.3-18.8,8.3-32.4,97.7,2.1,103.9,13.8S1642.14,822,1642.14,822Z"/><path class="cls-18" d="M1597.74,852.7a1.28,1.28,0,0,1-1,.4,1.61,1.61,0,0,1-1.1-.5l-1.4-1.5c-4.3,3.8-8.4,5.7-12.2,5.7a3.75,3.75,0,0,1-1.1-.1,9.47,9.47,0,0,1-6.4-3.3,1.5,1.5,0,0,1,2.4-1.8,6.61,6.61,0,0,0,4.4,2.2c3.2.3,6.9-1.4,10.9-4.9l-.8-.9a1.49,1.49,0,1,1,2.2-2l4.2,4.6A1.45,1.45,0,0,1,1597.74,852.7Z"/><path class="cls-18" d="M1612.94,822.9a1.5,1.5,0,0,1-1.1-.4,25.4,25.4,0,0,0-20.1-6.9,1.47,1.47,0,0,1-.5-2.9,27.4,27.4,0,0,1,22.7,7.7,1.45,1.45,0,0,1,0,2.1A1.16,1.16,0,0,1,1612.94,822.9Z"/><path class="cls-18" d="M1578.84,843.9a.6.6,0,0,1-.4-.1,1.54,1.54,0,0,1-1-1.9c0-.1,3.1-10.3-1.9-19-4.3-7.5-14-5.2-14.1-5.1a1.49,1.49,0,0,1-.7-2.9c4.1-1,13.1-1,17.4,6.6,5.7,9.9,2.4,20.9,2.2,21.4A1.64,1.64,0,0,1,1578.84,843.9Z"/><ellipse class="cls-18" cx="1567.64" cy="828.3" rx="1.8" ry="3.9"/><ellipse class="cls-18" cx="1598.74" cy="828.3" rx="2.1" ry="4.7"/><path class="cls-18" d="M1634.84,842.9a1.54,1.54,0,0,1-1.5-1.5,11.82,11.82,0,0,1,11.8-11.8,1.5,1.5,0,0,1,0,3,8.75,8.75,0,0,0-8.8,8.8A1.47,1.47,0,0,1,1634.84,842.9Z"/></g><g id="WOMAN"><g id="LEGS"><g id="RIGHT_LEG" data-name="RIGHT LEG"><path class="cls-14" d="M2149.64,2729.4c-2.7-.8-4.2-1.2-4.2-1.2l-32.7,107.1-123.1-32.3c-1-.9-1.5-1.4-1.5-1.4s-498.5-390.7-524.7-578.2,182.7-365.4,182.7-365.4,445.3,841.7,500.4,869.2A13.43,13.43,0,0,1,2149.64,2729.4Z"/><path class="cls-15" d="M1751.54,2054.9c-15.6,83.5-70.4,252.6-127.1,416.2-84-90.5-151.8-181.8-161-247.8-16.6-118.8,61.3-233.9,120.5-302.1a526.45,526.45,0,0,1,70.4-47.7C1669.84,1902.6,1705.74,1970,1751.54,2054.9Z"/><path class="cls-8" d="M2429.44,2801.5,2246.34,2919l-53.1-8-48.9,31,15.8,32.4-80.5,51.7c-106.7-97.1-91.6-223.4-91.6-223.4l124.6,32.7,32.7-107.1s111.9,32.7,194.5,29.9C2422.64,2755.4,2429.44,2801.5,2429.44,2801.5Z"/><path class="cls-20" d="M2221.34,2742.6s-7.7-81.4-27-76.3,4.9,86.4,26.6,77.5,43.4-66.6,43.4-66.6"/><polyline class="cls-20" points="2007.14 2918.9 2129.84 2920.8 2190.74 2884.4 2248.54 2893.7 2421.84 2785.5"/><line class="cls-20" x1="2195.94" y1="2738" x2="2184.54" y2="2791.1"/><line class="cls-20" x1="2220.74" y1="2744" x2="2209.34" y2="2797.1"/><line class="cls-20" x1="2246.64" y1="2748.3" x2="2235.24" y2="2801.4"/></g><g id="LEFT_LEG" data-name="LEFT LEG"><path class="cls-14" d="M1603.84,1817.1s73.3,34.2,73.3,159.6c0,121.2-279.8,863.4-279.8,863.4l-86.1,73-87.4-95.7C1266.54,2776.8,1143.94,2042.8,1603.84,1817.1Z"/><path class="cls-8" d="M1596,3055.3l-217.6.2-40.4-35.4-57.9-.3-4.2,35.8-85.3.1c-46.4-144.4,33.6-238.4,33.6-238.4l86.8,95.6,86.7-72.9s75.2,88.2,146.2,130.4C1615.14,3012.7,1596,3055.3,1596,3055.3Z"/><path class="cls-20" d="M1447.34,2891.4s85.4-55.1,61.1-76.2-73.2,70.5-59.9,77.8,105.4-20.4,105.4-20.4"/><polyline class="cls-20" points="1179.14 2928 1281.24 2992.4 1352.14 2992.4 1397.04 3030.1 1597.74 3030.1"/><line class="cls-20" x1="1428.34" y1="2870.6" x2="1389.94" y2="2909"/><line class="cls-20" x1="1445.94" y1="2889.1" x2="1407.54" y2="2927.5"/><line class="cls-20" x1="1465.34" y1="2906.7" x2="1426.94" y2="2945.1"/></g></g><g id="SKIRT"><path class="cls-9" d="M1603.84,1817.1c-172.9,84.8-263.5,241.6-311.4,406.3H767.74c-134.3,0-234.4-123.9-206.1-255.2l38.5-178.8h912.3A163.93,163.93,0,0,1,1603.84,1817.1Z"/><polygon class="cls-14" points="1214.24 1988.5 1403.14 1988.1 1375.14 2034 1214.24 1988.5"/><path class="cls-21" d="M1604.84,1816.1c-86,42.2-151.6,102.2-201.8,172.1H924.34c-86.3,0-150.7-79.3-133.1-163.8l7.3-35"/><path class="cls-21" d="M1293.14,2223.3c19.1-65.7,44.9-130.2,80-189.3l-158.9-45.6"/></g><g id="BLOUSE"><path class="cls-11" d="M477.54,1309.1l96.1,377H394.34c-104.4,0-171.6-110.9-123.2-203.4l137.7-263.3A226,226,0,0,1,609,1098.2h32.5C531.14,1098.1,450.24,1202.1,477.54,1309.1Z"/><path class="cls-11" d="M1584.14,1211.3c56.5,0,103.5-7.5,114.9-18l-175.3,380a194.13,194.13,0,0,1-298.2,69.7L1115,1553.8s-11,64.7-89.5,81.2v154.2H600L477.54,1309c-27.3-107,53.6-211.1,164-211.1h297.9a313.92,313.92,0,0,1,250.4,124.9l145.6,193.2,130.8-228.6h0c0,.2-.1.5-.1.7C1466.24,1201.4,1519.14,1211.3,1584.14,1211.3Z"/><line class="cls-21" x1="476.54" y1="1309.1" x2="570.64" y2="1689.1"/><line class="cls-21" x1="1116.04" y1="1558.9" x2="1032.44" y2="1469.9"/><path class="cls-9" d="M1701.64,1187.7l-2.6,5.6c-11.4,10.6-58.4,18-114.9,18-65,0-117.9-9.9-117.9-23a1.7,1.7,0,0,1,.1-.7c1.8-12.8,54-23.8,117.9-23.8s115.6,11,117.4,23.9Z"/></g><g id="ARM"><path class="cls-14" d="M1754,995.7a34.68,34.68,0,0,1-4,16.2,35.87,35.87,0,0,1-11.1,12.5l-2.3,1.6-17.9,95.5a57.3,57.3,0,0,1-25.4,37.7l-24.5,15.6-19.4,12.4-9,21.5a561.67,561.67,0,0,1-56.2,2.7,545.6,545.6,0,0,1-56.9-2.8V1060.5a43.79,43.79,0,0,1,4.1-18.5l32.6-70.2s35.6,8.8,19.2,52.5c-14.9,39.7,19.1,29.5,38.2,22.4,17.1-6.4,91.8-44.4,121-58.3A8.11,8.11,0,0,1,1754,995.7Z"/><path class="cls-22" d="M1722.84,1085.2a57.1,57.1,0,0,1-25.4,37.6l-43.9,28"/><path class="cls-22" d="M1730,1044.7a57.1,57.1,0,0,1-25.4,37.6l-43.9,28"/><line class="cls-22" x1="1733.44" y1="1027.1" x2="1662.84" y2="1071.9"/><path class="cls-15" d="M1672.64,1172.3l-3.9,2.5-19.4,12.4-9,21.5a561.67,561.67,0,0,1-56.2,2.7,545.6,545.6,0,0,1-56.9-2.8V1167a491.7,491.7,0,0,1,56.9-3.1C1619.44,1163.8,1651,1167.1,1672.64,1172.3Z"/></g><g id="HEAD"><g id="NECK"><path class="cls-14" d="M1007.34,1105.3c-14.5,19.5-68.5,65.4-250.3,65.4-233.9,0-84.2-72.4-84.2-72.4L772,932.6l106.4,65.3v52.5a47.91,47.91,0,0,0,47.9,47.9h6.9C958,1098.2,983.64,1099.3,1007.34,1105.3Z"/><polygon class="cls-15" points="878.34 997.8 878.34 1011.2 672.74 1098.2 771.94 932.5 878.34 997.8"/></g><g id="HEAD-2" data-name="HEAD"><path class="cls-14" d="M883.94,1004.3h22.6a37.73,37.73,0,0,0,37.7-37.7V840.7H809.34v89A74.6,74.6,0,0,0,883.94,1004.3Z"/><path class="cls-22" d="M941.34,959.3c-14.5,0-20.3-10-20.3-10"/><ellipse class="cls-15" cx="928.24" cy="909.7" rx="4.8" ry="9.3"/></g><path id="HAIR" class="cls-23" d="M835,853.8s111.3,67.2,147.5,8.7c31.8-51.3-109.1-77.7-158.3-77.9-53.5-.2-124.4,23.5-123.2,102.2,1,64.8,3.7,159.6-34.7,143.1-136.6-58.6-258,2.6-258.4,119.2s134.9,127.5,138.3,97.4-84-23.1-72.2,54.8,63.9,175.3,183.1,175.3c144,.1,235.7-189.5,146.6-208.8-68.3-14.8,69.6,117,110.5-20,44-147.5-115-195.8-118.9-284.9S835,853.8,835,853.8Z"/><g id="GLASSES"><line class="cls-20" x1="827.24" y1="907.3" x2="906.84" y2="907.3"/><ellipse class="cls-20" cx="931.34" cy="910.3" rx="22.6" ry="29"/></g><g id="HEADPHONES"><path class="cls-1" d="M785,871.6V787.4a22.9,22.9,0,0,1,22.9-22.9h25a22.9,22.9,0,0,1,22.9,22.9"/><path class="cls-12" d="M809.14,964.3H761a22.32,22.32,0,0,1-22.3-22.3V893.9A22.32,22.32,0,0,1,761,871.6h48.1a22.32,22.32,0,0,1,22.3,22.3V942A22.38,22.38,0,0,1,809.14,964.3Z"/><path class="cls-12" d="M796.64,948.4h-23.5a18.42,18.42,0,0,1-18.4-18.4V906.5a18.42,18.42,0,0,1,18.4-18.4h23.5A18.42,18.42,0,0,1,815,906.5V930A18.35,18.35,0,0,1,796.64,948.4Z"/><line class="cls-1" x1="805.94" y1="890.5" x2="764.14" y2="946.1"/><line class="cls-1" x1="792.14" y1="888.6" x2="755.94" y2="936.6"/><line class="cls-1" x1="814.04" y1="900.4" x2="777.84" y2="948.4"/><line class="cls-1" x1="815.04" y1="918.3" x2="792.34" y2="948.4"/><line class="cls-1" x1="777.44" y1="888.6" x2="754.84" y2="918.5"/></g></g></g><g id="CHAIR"><path class="cls-1" d="M749.44,2280.3v55.1a48.23,48.23,0,0,1-48.2,48.2H577.64"/><line class="cls-1" x1="795.54" y1="2280.9" x2="795.54" y2="2786.4"/><path class="cls-1" d="M571.74,2948.5c0-89.5,88.9-162.1,198.5-162.1H820c109.6,0,198.5,72.6,198.5,162.1"/><path class="cls-7" d="M1276.44,2288.6h-726a65.79,65.79,0,0,1-65.8-65.8h809Z"/><circle class="cls-7" cx="567.34" cy="3002.1" r="53.6"/><path class="cls-7" d="M540,2397.3h107.6a15.88,15.88,0,0,0,15.9-15.9v-1.2a15.88,15.88,0,0,0-15.9-15.9H540a15.88,15.88,0,0,0-15.9,15.9v1.2A15.88,15.88,0,0,0,540,2397.3Z"/><path class="cls-3" d="M484.64,2224.8h515.1L827.44,1742a84.26,84.26,0,0,0-79.3-55.9H369.44a54.34,54.34,0,0,0-51.2,72.6Z"/><path class="cls-3" d="M510.14,2224.8h447.8L791.44,1758a81.33,81.33,0,0,0-76.6-54H331.44"/><circle class="cls-7" cx="1017.64" cy="3002.1" r="53.6"/></g></svg>