<svg id="Слой_1" data-name="Слой 1" xmlns="http://www.w3.org/2000/svg" viewBox="0 0 3142.52 2071.17"><defs><style>.cls-1{fill:#9a3b82;}.cls-10,.cls-15,.cls-2,.cls-21,.cls-7{fill:#fff;}.cls-2,.cls-20,.cls-4,.cls-5{stroke:#ffcf2d;}.cls-10,.cls-11,.cls-12,.cls-13,.cls-14,.cls-17,.cls-19,.cls-2,.cls-20,.cls-21,.cls-22,.cls-4,.cls-5,.cls-8{stroke-miterlimit:10;}.cls-10,.cls-11,.cls-12,.cls-15,.cls-16,.cls-17,.cls-2,.cls-21,.cls-4,.cls-5{stroke-width:6px;}.cls-3{fill:#fe5244;}.cls-4,.cls-6{fill:#ffcf2d;}.cls-11,.cls-12,.cls-13,.cls-14,.cls-16,.cls-17,.cls-19,.cls-20,.cls-5,.cls-8{fill:none;}.cls-11,.cls-21,.cls-8{stroke:#fe5244;}.cls-13,.cls-14,.cls-19,.cls-20,.cls-22,.cls-8{stroke-width:5px;}.cls-9{fill:#66b0f0;}.cls-10,.cls-15,.cls-16,.cls-17{stroke:#66b0f0;}.cls-12,.cls-13,.cls-14,.cls-22{stroke:#fff;}.cls-13,.cls-16,.cls-19,.cls-20{stroke-linecap:round;}.cls-15,.cls-16{stroke-linejoin:round;}.cls-18{fill:#e57281;}.cls-19{stroke:#9a3b82;}.cls-22{fill:#3fb1b5;}</style></defs><path class="cls-1" d="M2945.74,1628.55a47.33,47.33,0,0,0,47.3-47.3v-181a47.33,47.33,0,0,0-47.3-47.3H315.34a47.33,47.33,0,0,0-47.3,47.3v181a47.33,47.33,0,0,0,47.3,47.3Z"/><path class="cls-2" d="M2944.94,1312H316a47.33,47.33,0,0,0-47.3,47.3v181a47.33,47.33,0,0,0,47.3,47.3h2628.9a47.33,47.33,0,0,0,47.3-47.3v-181A47.33,47.33,0,0,0,2944.94,1312Z"/><g id="BOOKS"><path class="cls-3" d="M2820.84,1417.05h0c0,14.9-11.9,27-26.5,27H2387a26.72,26.72,0,0,1-26.5-27h0c0-14.9,11.9-27,26.5-27h407.3C2808.94,1390.05,2820.84,1402.15,2820.84,1417.05Z"/><path class="cls-2" d="M2648.94,1135.85h-166.7v116h322A162,162,0,0,0,2648.94,1135.85Z"/><polygon class="cls-4" points="2512.24 1135.85 2512.24 1251.85 2443.24 1251.95 2443.24 1135.85 2512.24 1135.85"/><path class="cls-5" d="M3059.54,1249.55l-255.3,2.3s63.9-86.6,239.3-63.7c0,0-137.2-28.6-276.4,0"/><path class="cls-5" d="M2804.24,1251.85s111.9-61.5,248.3-31.7"/><path class="cls-6" d="M2832.74,1346.75c0,10.9,1.7,20.8,4.4,28.1h-122.5c-6.3,0-11.5-5.5-11.5-12.2V1331c0-6.8,5.1-12.2,11.5-12.2h122.5C2834.44,1326,2832.74,1335.85,2832.74,1346.75Z"/><path class="cls-7" d="M2703.24,1331v31.7a12.18,12.18,0,0,0,12.2,12.2H2847v2.3a10.07,10.07,0,0,1-10.1,10.1h-460.3a10.07,10.07,0,0,1-10.1-10.1v-60.8a10.07,10.07,0,0,1,10.1-10.1h460.3a10.07,10.07,0,0,1,10.1,10.1v2.3h-131.6A12.34,12.34,0,0,0,2703.24,1331Z"/><path class="cls-5" d="M2703.24,1331v31.7a12.18,12.18,0,0,0,12.2,12.2H2847v2.3a10.07,10.07,0,0,1-10.1,10.1h-460.3a10.07,10.07,0,0,1-10.1-10.1v-60.8a10.07,10.07,0,0,1,10.1-10.1h460.3a10.07,10.07,0,0,1,10.1,10.1v2.3h-131.6A12.34,12.34,0,0,0,2703.24,1331Z"/><path class="cls-6" d="M2531.74,1465.75c-4.8,4.5-7.8,12.7-7.8,19.6,0,13.7,12,27.8,26.8,27.8h368.8a11.71,11.71,0,0,1-11.7,11.7h-445.1a44.93,44.93,0,0,1-30.5-11.7,38.44,38.44,0,0,1-12.7-28.3c0-22.1,19.3-40,43.2-40h445.1a11.71,11.71,0,0,1,11.7,11.7v2.1h-368.8A27.51,27.51,0,0,0,2531.74,1465.75Z"/><path class="cls-3" d="M2892.84,1458.55v53.6h26.6v4.5h-370a30.51,30.51,0,0,1-11.7-2.3h0a30.52,30.52,0,0,1-10.4-6.9,31.25,31.25,0,0,1,22.1-53.4h370v4.5Z"/><path class="cls-7" d="M2903.14,1458.55v53.6h-352.4a26.8,26.8,0,0,1-26.8-26.8,27.09,27.09,0,0,1,7.8-19,26.68,26.68,0,0,1,18.9-7.8Z"/><line class="cls-8" x1="2903.14" y1="1458.55" x2="2903.14" y2="1512.15"/><path class="cls-3" d="M2599.84,1496.55v44.7h-30.9v-39a16.88,16.88,0,0,0-16.9-16.9h-13.8v-5.7h44.7A16.88,16.88,0,0,1,2599.84,1496.55Z"/><path class="cls-9" d="M2920.94,1254.35h-525.4a24.58,24.58,0,0,0-24.6,24.6h0a24.63,24.63,0,0,0,24.6,24.5h525.4a24.58,24.58,0,0,0,24.6-24.6h0A24.69,24.69,0,0,0,2920.94,1254.35Z"/><path class="cls-1" d="M2801.74,1303.55h-5.3c.6,1.6,2.1,5.6,5.4,5.6,2,0,11.8-1.5,11.8-30.2,0-10.2-1.2-18-3.6-23.3-2.9-6.3-6.7-7-8.1-7-3.4,0-4.9,4.1-5.5,5.7h5.3a2.49,2.49,0,0,1,.5-.7c1.8.5,6.6,5.5,6.6,25.3s-4.8,24.7-6.6,25.3A1.79,1.79,0,0,1,2801.74,1303.55Z"/><path class="cls-1" d="M2845.14,1303.55h-5.3c.6,1.6,2.1,5.6,5.4,5.6,2,0,11.8-1.5,11.8-30.2,0-10.2-1.2-18-3.6-23.3-2.9-6.3-6.7-7-8.1-7-3.4,0-4.9,4.1-5.5,5.7h5.3a2.49,2.49,0,0,1,.5-.7c1.8.5,6.6,5.5,6.6,25.3s-4.8,24.7-6.6,25.3C2845.54,1304.05,2845.34,1303.85,2845.14,1303.55Z"/><path class="cls-1" d="M2888.64,1303.55h-5.3c.6,1.6,2.1,5.6,5.4,5.6,2.8,0,11.8-2.2,11.8-30.2s-9-30.2-11.8-30.2c-3.4,0-4.9,4.1-5.5,5.7h5.3a2.49,2.49,0,0,1,.5-.7c2,.5,6.6,5.7,6.6,25.3,0,12-1.7,18.2-3.2,21.4-1.2,2.6-2.5,3.7-3.4,3.9A3,3,0,0,0,2888.64,1303.55Z"/><path class="cls-1" d="M2671.24,1303.55h-5.3c.6,1.6,2.1,5.6,5.4,5.6,2,0,11.8-1.5,11.8-30.2,0-28.1-9-30.2-11.8-30.2-3.4,0-4.9,4.1-5.5,5.7h5.3a2.49,2.49,0,0,1,.5-.7c2,.5,6.6,5.7,6.6,25.3,0,19.8-4.8,24.7-6.6,25.3C2671.64,1304.05,2671.44,1303.85,2671.24,1303.55Z"/><path class="cls-1" d="M2714.74,1303.55h-5.3c.6,1.6,2.1,5.6,5.4,5.6,1.9,0,5.4-.8,8.1-6.4,2.4-5.1,3.7-13.1,3.7-23.8s-1.2-18.7-3.7-23.8c-2.7-5.6-6.2-6.4-8.1-6.4-3.4,0-4.9,4.1-5.5,5.7h5.3a2.49,2.49,0,0,1,.5-.7c1.2.2,2.4,1.5,3.4,3.6,1.4,3,3.2,9.2,3.2,21.7s-1.7,18.6-3.2,21.7c-1,2.1-2.3,3.4-3.4,3.6A3,3,0,0,0,2714.74,1303.55Z"/><path class="cls-1" d="M2758.24,1303.55h-5.3c.6,1.6,2.1,5.6,5.4,5.6,2.8,0,11.8-2.2,11.8-30.2,0-28.8-9.8-30.2-11.8-30.2-3.4,0-4.9,4.1-5.5,5.7h5.3a2.49,2.49,0,0,1,.5-.7c1.8.5,6.6,5.5,6.6,25.3,0,19.6-4.6,24.8-6.6,25.3A3,3,0,0,0,2758.24,1303.55Z"/><path class="cls-1" d="M2540.84,1303.55h-5.3c.6,1.6,2.1,5.6,5.4,5.6,1.5,0,5.3-.7,8.1-7,2.4-5.2,3.6-13.1,3.6-23.3,0-9.4-1.3-17.3-3.6-22.7-2.1-4.8-5.1-7.6-8.2-7.6-3.4,0-4.9,4.1-5.5,5.7h5.3c.2-.3.3-.6.4-.7.6.3,2,1.4,3.4,4.6s3.2,9.6,3.2,20.6c0,19.8-4.8,24.7-6.6,25.3C2541.14,1304.05,2541,1303.85,2540.84,1303.55Z"/><path class="cls-1" d="M2584.34,1303.55H2579c.6,1.6,2.1,5.6,5.4,5.6,1.5,0,5.3-.7,8.1-7,2.4-5.2,3.6-13.1,3.6-23.3,0-28.1-9-30.2-11.8-30.2-3.4,0-4.9,4.1-5.5,5.7h5.3a2.49,2.49,0,0,1,.5-.7c2,.5,6.6,5.7,6.6,25.3,0,19.8-4.8,24.7-6.6,25.3A1.33,1.33,0,0,0,2584.34,1303.55Z"/><path class="cls-1" d="M2627.84,1303.55h-5.3c.6,1.6,2.1,5.6,5.4,5.6,2.8,0,11.8-2.2,11.8-30.2,0-10.7-1.2-18.7-3.7-23.8-2.7-5.6-6.2-6.4-8.1-6.4-3.4,0-4.9,4.1-5.5,5.7h5.3a2.49,2.49,0,0,1,.5-.7c1.2.2,2.4,1.5,3.4,3.6,1.4,3,3.2,9.2,3.2,21.7,0,19.6-4.6,24.8-6.6,25.3C2628.14,1304.05,2627.94,1303.85,2627.84,1303.55Z"/><path class="cls-1" d="M2410.44,1303.55h-5.3c.6,1.6,2.1,5.6,5.4,5.6,3.1,0,6-2.8,8.2-7.6,2.4-5.4,3.6-13.2,3.6-22.7,0-11.1-2-18.1-3.6-22-2.2-5.2-5.2-8.2-8.2-8.2-3.4,0-4.9,4.1-5.5,5.7h5.3a5.74,5.74,0,0,0,.4-.7c.7.4,2.2,1.8,3.6,5.6,1.4,3.5,3,9.7,3,19.6,0,11.1-1.7,17.3-3.2,20.7-1.4,3.2-2.8,4.3-3.4,4.6C2410.74,1304.05,2410.54,1303.85,2410.44,1303.55Z"/><path class="cls-1" d="M2453.84,1303.55h-5.3c.6,1.6,2.1,5.6,5.4,5.6,3.1,0,6-2.8,8.2-7.6,2.4-5.4,3.6-13.2,3.6-22.7,0-19.6-6.1-30.2-11.8-30.2-3.4,0-4.9,4.1-5.5,5.7h5.3a5.74,5.74,0,0,0,.4-.7c.7.4,2.1,1.8,3.6,5.4,1.4,3.4,3,9.7,3,19.8,0,11.1-1.7,17.3-3.2,20.7-1.4,3.2-2.8,4.3-3.4,4.6A1.55,1.55,0,0,0,2453.84,1303.55Z"/><path class="cls-1" d="M2497.34,1303.55H2492c.6,1.6,2.1,5.6,5.4,5.6,1.5,0,5.2-.7,8.2-7.4,2.4-5.4,3.6-13.1,3.6-22.8,0-9.4-1.3-17.3-3.6-22.7-2.1-4.8-5.1-7.6-8.2-7.6-3.4,0-4.9,4.1-5.5,5.7h5.3c.2-.3.3-.6.4-.7.6.3,2,1.4,3.4,4.6s3.2,9.6,3.2,20.6c0,11.3-1.7,17.5-3.2,20.8-1.4,3.1-2.8,4.2-3.4,4.4A5.2,5.2,0,0,0,2497.34,1303.55Z"/></g><g id="PAPER"><polygon class="cls-6" points="2237.24 1587.55 1954.54 1587.55 1835.84 1444.95 2111.74 1444.95 2237.24 1587.55"/><path class="cls-10" d="M2390.34,1595v88l-224,.9a51.79,51.79,0,0,1-52-51.8v-27.3a74.07,74.07,0,0,0-18.7-49.2l-73.9-83h275.9l70.6,69.7A73.51,73.51,0,0,1,2390.34,1595Z"/><path class="cls-10" d="M2491.14,1652a57.81,57.81,0,0,1-51.8,32h-276a58,58,0,0,0,51.8-32Z"/></g><g id="CHARACTER"><g id="HOODY"><path class="cls-3" d="M2320,1103.85l-168.4-295.8A226.13,226.13,0,0,0,1955,693.75h-630.7l22.1-47.7c-1.8,3.9-11.3,4.9-25.8,2.9-22.2-3-56-12.7-92-28.7-20.6-9.1-39.3-18.6-54.8-27.4-29.3-16.7-47-31.3-44.1-37.8l-322,528.1c-70.7,103.1,3.1,243.2,128.1,243.2a154.92,154.92,0,0,0,93.3-31.2l247.3-185.9a24.68,24.68,0,0,1,39.2,15.8l32.3,201.3h842.6C2304.84,1326.45,2376.54,1203.05,2320,1103.85Zm-374.8,23.1,27-61.4a13.26,13.26,0,0,1,24.2-.3l29.3,61.8h-80.5Z"/><path class="cls-11" d="M1424.74,693.55c0-51.7,106.7-115.6,236.1-131.9,194.1-24.3,236.1,80.2,236.1,131.9"/><path class="cls-3" d="M1874.54,694.45c0,46.3-213.7,141.1-213.7,141.1s-213.7-94.8-213.7-141.1,101.6-99.9,218.7-114.2C1834.34,559.65,1874.54,648.05,1874.54,694.45Z"/><path class="cls-7" d="M1874.54,694.45c0,46.3-213.7,141.1-213.7,141.1s-213.7-94.8-213.7-141.1v-.6h427.4Z"/><path class="cls-12" d="M1896.84,693.45c0,51.1-236,167.3-236,167.3s-236-116.1-236-167.3"/><path class="cls-13" d="M1842.94,1324.15c13.2,0,23.9-43.7,23.9-97.5s-10.7-97.5-23.9-97.5"/><line class="cls-14" x1="1341.54" y1="665.65" x2="1156.44" y2="1035.75"/><line class="cls-13" x1="1301.34" y1="1027.25" x2="1331.94" y2="1228.65"/><line class="cls-13" x1="1650.84" y1="884.45" x2="1670.84" y2="884.45"/><line class="cls-13" x1="1650.84" y1="908.25" x2="1670.84" y2="908.25"/><line class="cls-13" x1="1650.84" y1="931.95" x2="1670.84" y2="931.95"/><line class="cls-13" x1="1650.84" y1="955.65" x2="1670.84" y2="955.65"/><line class="cls-13" x1="1650.84" y1="979.35" x2="1670.84" y2="979.35"/><line class="cls-13" x1="1650.84" y1="1003.15" x2="1670.84" y2="1003.15"/><line class="cls-13" x1="1650.84" y1="1004.25" x2="1670.84" y2="1004.25"/><line class="cls-13" x1="1650.84" y1="1027.95" x2="1670.84" y2="1027.95"/><line class="cls-13" x1="1650.84" y1="1051.65" x2="1670.84" y2="1051.65"/><line class="cls-13" x1="1650.84" y1="1074.25" x2="1670.84" y2="1074.25"/><line class="cls-13" x1="1650.84" y1="1098.05" x2="1670.84" y2="1098.05"/><line class="cls-13" x1="1650.84" y1="1121.75" x2="1670.84" y2="1121.75"/><line class="cls-13" x1="1650.84" y1="1145.45" x2="1670.84" y2="1145.45"/><line class="cls-13" x1="1650.84" y1="1169.15" x2="1670.84" y2="1169.15"/><line class="cls-13" x1="1650.84" y1="1192.95" x2="1670.84" y2="1192.95"/><line class="cls-13" x1="1650.84" y1="1216.65" x2="1670.84" y2="1216.65"/><line class="cls-13" x1="1650.84" y1="1240.35" x2="1670.84" y2="1240.35"/><line class="cls-13" x1="1650.84" y1="1264.05" x2="1670.84" y2="1264.05"/><line class="cls-13" x1="1650.84" y1="1265.25" x2="1670.84" y2="1265.25"/><line class="cls-13" x1="1650.84" y1="1288.95" x2="1670.84" y2="1288.95"/><line class="cls-13" x1="1650.84" y1="1312.65" x2="1670.84" y2="1312.65"/><line class="cls-14" x1="1648.74" y1="852.15" x2="1648.74" y2="1228.65"/><line class="cls-13" x1="1831.34" y1="1128.95" x2="2071.84" y2="1128.95"/></g><g id="BOOK"><polygon class="cls-10" points="1162.14 1522.45 1930.04 1522.45 1857.84 1327.15 1245.34 1327.15 1162.14 1522.45"/><path class="cls-9" d="M1162.14,1522.45c0-27.6,73.2-77.5,192.1-84.3,127.3-7.2,194,72.8,192.1,84.3Z"/><path class="cls-15" d="M1546.24,1522.45s-33.8-158-330.5-125.8l64.1-155.9s243-44.2,266.5,86.4Z"/><path class="cls-15" d="M1925.54,1510.15c-17.7-24.5-85.9-50.1-187.5-55.9-120.8-6.9-187,50.5-191.8,66.1v-193.2s86.2-98.4,311.6,0Z"/><path class="cls-16" d="M1821.84,1429.35c-25.2-6.4-55.7-11.2-90.5-13.2a291.76,291.76,0,0,0-48.2,1.1c-36.7,4.1-65.6,15.1-86.2,26.9"/><path class="cls-16" d="M1812.94,1396.05c-24.1-5.7-52.8-10-85.2-11.9a291.76,291.76,0,0,0-48.2,1.1c-36.7,4.1-65.6,15.1-86.2,26.9"/><path class="cls-16" d="M1804.74,1362.85a511.88,511.88,0,0,0-79.7-10.7,291.76,291.76,0,0,0-48.2,1.1c-36.7,4.1-65.6,15.1-86.2,26.9"/><line class="cls-17" x1="1837.74" y1="1318.35" x2="1901.34" y2="1491.55"/><path class="cls-9" d="M1930.14,1522.45h-383.9v-2.1c4.8-15.6,71-73,191.8-66.1,101.6,5.8,169.8,31.4,187.5,55.9Z"/></g><g id="HEAD"><g id="NECK"><path class="cls-18" d="M1783.34,693.75s-71.6,37.3-171,22.3h0a324.88,324.88,0,0,1-78.6-22.3V573.35l128.8-80.2,19.3,32.1Z"/><path class="cls-1" d="M1669.64,502.65a57.06,57.06,0,0,1,3.4,46.6l-60.7,166.8h0a324.88,324.88,0,0,1-78.6-22.3V573.35l129.4-82.7Z"/></g><path id="HAIR" class="cls-1" d="M1658.54,448.75s15.1-134.3-38.6-146.6c-41-9.4-61.4,21.5-61.4,21.5s-22.2-32.4-56.6-17.2c-32.7,14.4-30.4,59.3-15.7,55.7s-14.2-32.4-45.1-11.1c-34.2,23.5,0,62.3,0,62.3s-25.3-12.2-37,12.7c-14.5,30.9,68.3,97.5,68.3,97.5Z"/><g id="HEAD-2" data-name="HEAD"><path id="HEAD-3" data-name="HEAD" class="cls-18" d="M1576.74,383.85l-85.9,34.5a40.54,40.54,0,0,0-22.5,52.6l37.5,93.5c13.8,34.5,53.4,51.3,87.8,37.5l35.7-14.3c34.5-13.8,51.3-53.4,37.5-87.8l-37.5-93.5A40.54,40.54,0,0,0,1576.74,383.85Z"/><g id="EARS"><path class="cls-18" d="M1684.14,492.85l-17.3,7-18.8-46.8,17.3-7a20,20,0,0,1,26,11.1l3.9,9.7A19.92,19.92,0,0,1,1684.14,492.85Z"/><path class="cls-1" d="M1487.24,568.05l17.3-7-17.5-43.5-17.3,7a20,20,0,0,0-11.1,26l2.6,6.4A20,20,0,0,0,1487.24,568.05Z"/><path class="cls-19" d="M1663,477.85a15.81,15.81,0,0,1,8.8-20.5"/></g><g id="FACE"><path class="cls-19" d="M1578.94,434.55s20.3,7.6,46.1-4.6"/><path class="cls-19" d="M1536,468.75s30.3-3.1,41.3,47.9"/><path class="cls-19" d="M1622,533.25s-44.7-12-43.1,11.1"/><ellipse class="cls-1" cx="1612.41" cy="476.43" rx="4.1" ry="10.1" transform="translate(-66.54 565.73) rotate(-19.51)"/><ellipse class="cls-1" cx="1529.93" cy="510.85" rx="4.1" ry="10.1" transform="translate(-82.77 540.17) rotate(-19.51)"/></g><g id="GLASSES"><circle class="cls-20" cx="1614.84" cy="476.25" r="28.9"/><circle class="cls-20" cx="1529.84" cy="509.25" r="28.9"/><line class="cls-20" x1="1556.84" y1="498.85" x2="1587.34" y2="484.85"/></g></g></g><g id="ARMS"><g id="LEFT"><path class="cls-21" d="M1352.44,635.05c-1.7,3.9-11.3,4.9-25.8,2.9-22.2-3-56-12.7-92-28.7-20.6-9.2-39.3-18.6-54.7-27.4-29.3-16.7-47-31.3-44.1-37.8h0c2.9-6.4,25.4-3.3,57.2,7a577,577,0,0,1,57.6,22.4c35.6,15.8,66.5,31.2,84.7,43.1C1347.74,624.55,1354.24,631.05,1352.44,635.05Z"/><path class="cls-1" d="M1522.14,432.25l-27.2,105.1-24.5-61a46.58,46.58,0,0,1,25-60Z"/><path class="cls-18" d="M1523.14,430.35l-54,93.6a35,35,0,0,1-30.3,17.5H1383a20.16,20.16,0,0,0-18.6,12.5l-29,62.7-8.5,18.3c-24.5-3.3-58.6-13.9-91.2-28.4-12.2-5.4-24.1-11.1-35.1-16.8l14.7-30.7,26.3-54.9a152.61,152.61,0,0,1,62-71.3l54.4-32.7a46.74,46.74,0,0,1,23.9-6.6h92.4a33.21,33.21,0,0,1,14.6,3.3l27.8,13.2A14.48,14.48,0,0,1,1523.14,430.35Z"/><path class="cls-19" d="M1392.54,433.35h66a32.69,32.69,0,0,1,14.1,3.2l26.7,12.8a14,14,0,0,1,6.1,19.5"/><path class="cls-19" d="M1376.14,461.75h66a32.69,32.69,0,0,1,14.1,3.2l26.7,12.8a14,14,0,0,1,6.1,19.5"/><path class="cls-19" d="M1356.84,498.85h66a32.69,32.69,0,0,1,14.1,3.2l26.7,12.8a14,14,0,0,1,6.1,19.5"/><path class="cls-1" d="M1327,635c-24.5-3.3-58.6-13.9-91.2-28.4-12.2-5.4-24.1-11.1-35.1-16.8l16.6-33.9c11.1,4.2,22,9,34.2,14.5,35.6,15.8,66.7,32.3,84.9,44.2Z"/><line class="cls-19" x1="1337.34" y1="538.75" x2="1384.14" y2="538.75"/></g><g id="RIGHT"><ellipse class="cls-7" cx="1830.94" cy="1226.65" rx="23.9" ry="99.7"/><path class="cls-18" d="M1854.84,1226.65a359.53,359.53,0,0,1-2.9,47.3,59.75,59.75,0,0,1-34.9,34.2,60.66,60.66,0,0,1-21,3.8h-90.7a20.74,20.74,0,0,0-20.7,20.7v2.8a22.26,22.26,0,0,1-32.6,19.7l-42.6-22.3a23.2,23.2,0,0,1-12.4-20.5v-33.3a39.78,39.78,0,0,1,15.8-31.7l65-48.9a63.24,63.24,0,0,1,38.1-12.7h136.7A347,347,0,0,1,1854.84,1226.65Z"/><path class="cls-19" d="M1694.24,1218l-59.7,44.9A36.61,36.61,0,0,0,1620,1292v30.6a21.15,21.15,0,0,0,11.4,18.8"/><path class="cls-19" d="M1724.64,1231.35l-59.7,44.9a36.61,36.61,0,0,0-14.5,29.1V1336a21.15,21.15,0,0,0,11.4,18.8"/><path class="cls-1" d="M1854.84,1226.65a359.53,359.53,0,0,1-2.9,47.3,59.75,59.75,0,0,1-34.9,34.2c-6.1-18.1-10.1-47.8-10.1-81.5a397.36,397.36,0,0,1,2.1-40.9h43.7A371,371,0,0,1,1854.84,1226.65Z"/></g></g></g><g id="CUP"><ellipse class="cls-6" cx="2028.54" cy="1362.85" rx="108.4" ry="9.1"/><path class="cls-2" d="M2118.74,1369.75h-44.8a75.18,75.18,0,0,1-75.2-75.2v-63.9H2194v63.8A75.28,75.28,0,0,1,2118.74,1369.75Z"/><path class="cls-5" d="M2221.34,1285.35h-27.4v-48.7h27.4a21.32,21.32,0,0,1,21.3,21.3v6.2A21.3,21.3,0,0,1,2221.34,1285.35Z"/><ellipse class="cls-22" cx="2096.34" cy="1229.95" rx="98.5" ry="19.7"/><path class="cls-5" d="M1998.84,1246c0,10.9,43.7,19.7,97.5,19.7s97.5-8.8,97.5-19.7"/><path class="cls-5" d="M1998.84,1266.85c0,10.9,43.7,19.7,97.5,19.7s97.5-8.8,97.5-19.7"/><path class="cls-5" d="M1998.84,1287.75c0,10.9,43.7,19.7,97.5,19.7s97.5-8.8,97.5-19.7"/><path class="cls-5" d="M2000.34,1308.65c0,10.9,43,19.7,96,19.7s96-8.8,96-19.7"/><path class="cls-5" d="M2007.84,1329.55c0,10.9,39.6,19.7,88.5,19.7s88.5-8.8,88.5-19.7"/><path class="cls-13" d="M2092.44,1195c-9.6-6.6-39.5-69.5-2.5-95.2,28.4-19.8,33.9,31.5,20.8,27.2-22.8-7.5-36.7-107.9,22.8-101.7,26.2,2.7,23.3,40,0,41"/></g><g id="LAPTOP"><path class="cls-2" d="M929.44,1488.75H437.94a32.18,32.18,0,0,1-29.9-20.2l-134.5-332.4a24.24,24.24,0,0,1,22.4-33.3h491.5a32.18,32.18,0,0,1,29.9,20.2l134.5,332.4A24.16,24.16,0,0,1,929.44,1488.75Z"/><path class="cls-6" d="M906.64,1491.15H437.74a30.78,30.78,0,0,1-28.5-19.2l-128.3-317.1a23,23,0,0,1,21.4-31.7h468.9a30.78,30.78,0,0,1,28.5,19.2L928,1459.45A23.09,23.09,0,0,1,906.64,1491.15Z"/><path class="cls-7" d="M618.74,1347a51.45,51.45,0,0,1-36.6-15.2,42,42,0,0,1,0-59.6,34.52,34.52,0,0,1,48.8,0,28.43,28.43,0,0,1,0,40.2,23.54,23.54,0,0,1-33.3,0,4,4,0,0,1,5.7-5.7,15.51,15.51,0,0,0,22,0,20.4,20.4,0,0,0,0-28.9,26.56,26.56,0,0,0-37.6,0,33.79,33.79,0,0,0-10,24.2,34.38,34.38,0,0,0,10,24.2,43.7,43.7,0,0,0,61.8,0,4,4,0,1,1,5.7,5.7A51.36,51.36,0,0,1,618.74,1347Z"/><path class="cls-2" d="M1105.34,1524H438.54a13.87,13.87,0,0,1-13.9-13.9v-6.7a13.87,13.87,0,0,1,13.9-13.9h666.8a13.87,13.87,0,0,1,13.9,13.9v6.7A14,14,0,0,1,1105.34,1524Z"/></g></svg>