<svg width="34" height="35" viewBox="0 0 34 35" fill="none" xmlns="http://www.w3.org/2000/svg">
<path d="M7.85218 8.53658C9.58684 8.53658 10.9931 7.14678 10.9931 5.43237C10.9931 3.71796 9.58684 2.32816 7.85218 2.32816C6.11752 2.32816 4.7113 3.71796 4.7113 5.43237C4.7113 7.14678 6.11752 8.53658 7.85218 8.53658Z" fill="#FFF"/>
<path d="M7.7994 34.9234C7.09981 34.8499 6.20943 34.4825 5.19185 33.6741C4.17428 32.8656 3.0931 31.8367 2.13912 30.4404C1.18514 29.044 0.485555 27.4272 0.167562 25.6634C-0.150431 23.826 -0.0232341 21.9887 0.612752 20.2249C1.43953 17.9466 2.9659 16.3298 4.49227 15.3009C6.01864 14.272 7.4814 13.9045 9.07137 13.978C9.70736 14.0515 10.3433 14.3455 11.0429 14.8599C11.7425 15.3744 12.5693 16.0358 13.4597 16.9177C14.3501 17.7996 15.3676 18.8285 16.4488 20.0044C17.53 21.1803 18.5476 22.3562 19.5015 23.6056C20.4555 24.8549 21.3459 25.9573 22.0455 27.0597C22.7451 28.1621 23.2539 29.044 23.6355 29.7789C23.8263 29.1175 24.017 28.2356 24.1442 27.2802C24.2714 26.3248 24.3986 25.2224 24.3986 24.1935C24.3986 23.0911 24.335 22.0622 24.1442 21.0333C23.9534 20.0044 23.7627 19.049 23.5719 18.3141C23.3811 17.5057 23.1267 16.8442 22.8723 16.4033C22.6815 15.8888 22.4907 15.5949 22.4907 15.5214C22.4271 15.3744 22.4271 15.2274 22.4907 15.1539C22.5543 15.0804 22.6179 15.0069 22.7451 15.0804C22.9359 15.0804 23.3175 15.3744 23.8263 15.9623C24.335 16.5503 24.9074 17.2852 25.4162 18.2406C25.9886 19.196 26.4974 20.2984 26.879 21.5478C27.2606 22.7971 27.4514 24.12 27.515 25.4429C27.515 26.7657 27.3878 27.9416 27.0698 29.1175C26.7518 30.2934 26.3702 31.1753 25.9886 31.8367C25.4798 32.7187 24.9074 33.3801 24.2714 33.821C23.6991 34.262 23.1267 34.4825 22.6179 34.409C22.2363 34.409 21.9183 34.115 21.4731 33.5271C21.0915 32.9391 20.5827 32.2042 19.8831 31.3223C19.1836 30.4404 18.4204 29.4115 17.4664 28.3091C16.5124 27.2067 15.5584 26.1043 14.6045 25.1489C13.6505 24.1935 12.7601 23.3116 11.9969 22.6502C11.2337 21.9887 10.5977 21.6213 10.0889 21.5478C9.51656 21.4743 9.13497 21.6213 8.88057 21.9152C8.62618 22.2092 8.43538 22.6502 8.37179 23.2381C8.24459 24.12 8.30819 25.0019 8.56258 25.8103C8.81698 26.6923 9.07137 27.5007 9.38936 28.3091C9.70736 29.1175 9.96175 29.8524 10.2797 30.5139C10.5341 31.1753 10.6613 31.7632 10.7249 32.2777C10.7885 33.2331 10.5341 33.968 10.0889 34.4825C9.51656 34.8499 8.88057 34.9969 7.7994 34.9234Z" fill="#fff"/>
</svg>
